<svg width="50" height="51" viewBox="0 0 50 51" fill="none" xmlns="http://www.w3.org/2000/svg">
<path d="M23.8214 1.85977C24.5236 1.3475 25.4764 1.3475 26.1786 1.85977L31.0382 5.4046C31.3815 5.65504 31.7957 5.78961 32.2207 5.7888L38.2357 5.77735C39.105 5.7757 39.8758 6.33571 40.1428 7.16294L41.9907 12.8871C42.1212 13.2916 42.3772 13.6439 42.7215 13.893L47.5945 17.4193C48.2987 17.9289 48.5931 18.835 48.3229 19.6612L46.4533 25.3783C46.3212 25.7823 46.3212 26.2177 46.4533 26.6217L48.3229 32.3388C48.5931 33.165 48.2987 34.0711 47.5945 34.5807L42.7215 38.107C42.3772 38.3561 42.1212 38.7085 41.9907 39.1129L40.1428 44.8371C39.8758 45.6643 39.105 46.2243 38.2357 46.2226L32.2207 46.2112C31.7957 46.2104 31.3815 46.345 31.0382 46.5954L26.1786 50.1402C25.4764 50.6525 24.5236 50.6525 23.8214 50.1402L18.9618 46.5954C18.6185 46.345 18.2043 46.2104 17.7793 46.2112L11.7643 46.2226C10.895 46.2243 10.1242 45.6643 9.85718 44.8371L8.00932 39.1129C7.87877 38.7085 7.62279 38.3561 7.27852 38.107L2.4055 34.5807C1.70128 34.0711 1.40687 33.165 1.67706 32.3388L3.5467 26.6217C3.67879 26.2177 3.67879 25.7823 3.5467 25.3783L1.67706 19.6612C1.40687 18.835 1.70128 17.9289 2.4055 17.4193L7.27852 13.893C7.62279 13.6439 7.87877 13.2916 8.00932 12.8871L9.85718 7.16294C10.1242 6.33571 10.895 5.7757 11.7643 5.77735L17.7793 5.7888C18.2043 5.78961 18.6185 5.65504 18.9618 5.4046L23.8214 1.85977Z" fill="#5697D3"/>
<path d="M11.325 31.1C11.2297 31.1 11.1517 31.0697 11.091 31.009C11.0303 30.9483 11 30.8703 11 30.775V22.325C11 22.2297 11.0303 22.1517 11.091 22.091C11.1517 22.0303 11.2297 22 11.325 22H12.703C12.8503 22 12.9543 22.0347 13.015 22.104C13.0843 22.1647 13.1277 22.2123 13.145 22.247L16.317 27.252V22.325C16.317 22.2297 16.3473 22.1517 16.408 22.091C16.4687 22.0303 16.5467 22 16.642 22H18.202C18.2973 22 18.3753 22.0303 18.436 22.091C18.4967 22.1517 18.527 22.2297 18.527 22.325V30.775C18.527 30.8617 18.4967 30.9397 18.436 31.009C18.3753 31.0697 18.2973 31.1 18.202 31.1H16.811C16.6723 31.1 16.5683 31.0653 16.499 30.996C16.4383 30.9267 16.3993 30.879 16.382 30.853L13.21 26.043V30.775C13.21 30.8703 13.1797 30.9483 13.119 31.009C13.0583 31.0697 12.9803 31.1 12.885 31.1H11.325Z" fill="white"/>
<path d="M20.6687 31.1C20.5734 31.1 20.4954 31.0697 20.4348 31.009C20.3741 30.9483 20.3438 30.8703 20.3438 30.775V22.325C20.3438 22.2297 20.3741 22.1517 20.4348 22.091C20.4954 22.0303 20.5734 22 20.6687 22H26.7398C26.8351 22 26.9131 22.0303 26.9738 22.091C27.0344 22.1517 27.0648 22.2297 27.0648 22.325V23.547C27.0648 23.6423 27.0344 23.7203 26.9738 23.781C26.9131 23.8417 26.8351 23.872 26.7398 23.872H22.5928V25.627H26.4538C26.5491 25.627 26.6271 25.6617 26.6878 25.731C26.7484 25.7917 26.7788 25.8697 26.7788 25.965V27.096C26.7788 27.1827 26.7484 27.2607 26.6878 27.33C26.6271 27.3907 26.5491 27.421 26.4538 27.421H22.5928V29.228H26.8438C26.9391 29.228 27.0171 29.2583 27.0777 29.319C27.1384 29.3797 27.1688 29.4577 27.1688 29.553V30.775C27.1688 30.8703 27.1384 30.9483 27.0777 31.009C27.0171 31.0697 26.9391 31.1 26.8438 31.1H20.6687Z" fill="white"/>
<path d="M30.1025 31.1C29.9552 31.1 29.8382 31.0567 29.7515 30.97C29.6648 30.8833 29.6128 30.7837 29.5955 30.671L28.1785 22.364C28.1698 22.3467 28.1655 22.3293 28.1655 22.312C28.1655 22.2947 28.1655 22.2817 28.1655 22.273C28.1655 22.2037 28.1915 22.143 28.2435 22.091C28.3042 22.0303 28.3692 22 28.4385 22H30.0505C30.2931 22 30.4275 22.0953 30.4535 22.286L31.2985 27.369L32.2345 24.366C32.2605 24.2967 32.3038 24.223 32.3645 24.145C32.4252 24.0583 32.5248 24.015 32.6635 24.015H33.5995C33.7468 24.015 33.8508 24.0583 33.9115 24.145C33.9722 24.223 34.0112 24.2967 34.0285 24.366L34.9645 27.356L35.8095 22.286C35.8355 22.0953 35.9698 22 36.2125 22H37.8245C37.9025 22 37.9675 22.0303 38.0195 22.091C38.0715 22.143 38.0975 22.2037 38.0975 22.273C38.0975 22.2817 38.0975 22.2947 38.0975 22.312C38.0975 22.3293 38.0975 22.3467 38.0975 22.364L36.6805 30.671C36.6632 30.7837 36.6112 30.8833 36.5245 30.97C36.4378 31.0567 36.3208 31.1 36.1735 31.1H34.9385C34.7912 31.1 34.6785 31.061 34.6005 30.983C34.5225 30.905 34.4705 30.8313 34.4445 30.762L33.1315 27.044L31.8185 30.762C31.7925 30.8313 31.7405 30.905 31.6625 30.983C31.5932 31.061 31.4848 31.1 31.3375 31.1H30.1025Z" fill="white"/>
</svg>
