<svg width="50" height="50" viewBox="0 0 50 50" fill="none" xmlns="http://www.w3.org/2000/svg">
<path d="M23.8214 0.859771C24.5236 0.347495 25.4764 0.347495 26.1786 0.859771L31.0382 4.4046C31.3815 4.65504 31.7957 4.78961 32.2207 4.7888L38.2357 4.77735C39.105 4.7757 39.8758 5.33571 40.1428 6.16294L41.9907 11.8871C42.1212 12.2916 42.3772 12.6439 42.7215 12.893L47.5945 16.4193C48.2987 16.9289 48.5931 17.835 48.3229 18.6612L46.4533 24.3783C46.3212 24.7823 46.3212 25.2177 46.4533 25.6217L48.3229 31.3388C48.5931 32.165 48.2987 33.0711 47.5945 33.5807L42.7215 37.107C42.3772 37.3561 42.1212 37.7085 41.9907 38.1129L40.1428 43.8371C39.8758 44.6643 39.105 45.2243 38.2357 45.2226L32.2207 45.2112C31.7957 45.2104 31.3815 45.345 31.0382 45.5954L26.1786 49.1402C25.4764 49.6525 24.5236 49.6525 23.8214 49.1402L18.9618 45.5954C18.6185 45.345 18.2043 45.2104 17.7793 45.2112L11.7643 45.2226C10.895 45.2243 10.1242 44.6643 9.85718 43.8371L8.00932 38.1129C7.87877 37.7085 7.62279 37.3561 7.27852 37.107L2.4055 33.5807C1.70128 33.0711 1.40687 32.165 1.67706 31.3388L3.5467 25.6217C3.67879 25.2177 3.67879 24.7823 3.5467 24.3783L1.67706 18.6612C1.40687 17.835 1.70128 16.9289 2.4055 16.4193L7.27852 12.893C7.62279 12.6439 7.87877 12.2916 8.00932 11.8871L9.85718 6.16294C10.1242 5.33571 10.895 4.7757 11.7643 4.77735L17.7793 4.7888C18.2043 4.78961 18.6185 4.65504 18.9618 4.4046L23.8214 0.859771Z" fill="#DB3737"/>
<path d="M12.396 30C12.324 30 12.26 29.976 12.204 29.928C12.156 29.872 12.132 29.812 12.132 29.748C12.132 29.724 12.136 29.7 12.144 29.676C12.152 29.652 12.164 29.628 12.18 29.604L14.796 25.716L12.372 21.996C12.348 21.948 12.336 21.9 12.336 21.852C12.336 21.788 12.36 21.732 12.408 21.684C12.456 21.628 12.516 21.6 12.588 21.6H14.328C14.448 21.6 14.54 21.632 14.604 21.696C14.668 21.752 14.716 21.804 14.748 21.852L16.176 24.024L17.628 21.852C17.66 21.804 17.708 21.752 17.772 21.696C17.836 21.632 17.928 21.6 18.048 21.6H19.704C19.768 21.6 19.824 21.628 19.872 21.684C19.928 21.732 19.956 21.788 19.956 21.852C19.956 21.908 19.94 21.956 19.908 21.996L17.472 25.704L20.112 29.604C20.128 29.628 20.136 29.652 20.136 29.676C20.144 29.7 20.148 29.724 20.148 29.748C20.148 29.812 20.124 29.872 20.076 29.928C20.028 29.976 19.968 30 19.896 30H18.108C17.988 30 17.892 29.972 17.82 29.916C17.756 29.852 17.712 29.8 17.688 29.76L16.104 27.456L14.532 29.76C14.508 29.8 14.464 29.852 14.4 29.916C14.336 29.972 14.244 30 14.124 30H12.396Z" fill="white"/>
<path d="M21.4252 30C21.3372 30 21.2652 29.972 21.2092 29.916C21.1532 29.852 21.1252 29.776 21.1252 29.688V21.9C21.1252 21.812 21.1532 21.74 21.2092 21.684C21.2732 21.628 21.3452 21.6 21.4252 21.6H22.9732C23.0612 21.6 23.1332 21.628 23.1892 21.684C23.2532 21.74 23.2852 21.812 23.2852 21.9V26.724L26.6932 21.828C26.7332 21.764 26.7852 21.712 26.8492 21.672C26.9132 21.624 26.9972 21.6 27.1012 21.6H28.4932C28.5732 21.6 28.6412 21.628 28.6972 21.684C28.7612 21.74 28.7932 21.812 28.7932 21.9V29.7C28.7932 29.78 28.7612 29.852 28.6972 29.916C28.6412 29.972 28.5732 30 28.4932 30H26.9452C26.8572 30 26.7812 29.972 26.7172 29.916C26.6612 29.852 26.6332 29.78 26.6332 29.7V25.044L23.2252 29.772C23.1932 29.82 23.1452 29.872 23.0812 29.928C23.0252 29.976 22.9372 30 22.8172 30H21.4252Z" fill="white"/>
<path d="M32.6247 30C32.5367 30 32.4647 29.972 32.4087 29.916C32.3527 29.852 32.3247 29.78 32.3247 29.7V23.484H30.1887C30.1007 23.484 30.0287 23.456 29.9727 23.4C29.9167 23.336 29.8887 23.264 29.8887 23.184V21.9C29.8887 21.812 29.9167 21.74 29.9727 21.684C30.0287 21.628 30.1007 21.6 30.1887 21.6H36.6447C36.7327 21.6 36.8047 21.628 36.8607 21.684C36.9167 21.74 36.9447 21.812 36.9447 21.9V23.184C36.9447 23.264 36.9167 23.336 36.8607 23.4C36.8047 23.456 36.7327 23.484 36.6447 23.484H34.5087V29.7C34.5087 29.78 34.4807 29.852 34.4247 29.916C34.3687 29.972 34.2967 30 34.2087 30H32.6247Z" fill="white"/>
</svg>
